<svg xmlns="http://www.w3.org/2000/svg" width="24" height="24" viewBox="0 0 24 24" fill="none"><path d="M 11.6666 1 c -0.0293 0.8413 -0.2213 1.844 -0.896 2.6667 -0.4627 0.5653 -0.848 0.672 -1.292 1.2293 -0.1627 0.204 -0.3187 0.4507 -0.4507 0.752" fill="none" stroke="currentColor" stroke-linecap="round" stroke-linejoin="round" stroke-width="1.5"></path><path d="M 15.3333 3.6667 c -0.02 0.5053 -0.148 1.1067 -0.5973 1.6 -0.1693 0.1867 -0.3227 0.2893 -0.476 0.4" fill="none" stroke="currentColor" stroke-linecap="round" stroke-linejoin="round" stroke-width="1.5"></path><path d="M 5 9 H 19 v 4.6667 c 0 3.68 -2.9867 6.6666 -6.6666 6.6666 h -0.6667 c -3.68 0 -6.6666 -2.9867 -6.6666 -6.6666 v -4.6667 h 0 Z" fill="none" stroke="currentColor" stroke-linecap="round" stroke-linejoin="round" stroke-width="1.5"></path><line x1="20.3333" y1="20.3333" x2="3.6667" y2="20.3333" fill="none" stroke="currentColor" stroke-linecap="round" stroke-linejoin="round" stroke-width="1.5"></line><path d="M 19 9 h 1.3333 c 1.4733 0 2.6667 1.188 2.6667 2.6667 s -1.1933 2.6667 -2.6667 2.6667 h -1.3333" fill="none" stroke="currentColor" stroke-linecap="round" stroke-linejoin="round" stroke-width="1.5"></path></svg>
